<svg height="35" viewBox="0 0 35 35" width="35" xmlns="http://www.w3.org/2000/svg"><path d="m38.694634 2004h-16.7629027c-1.0671783 0-1.9317313-.86509-1.9317313-1.93185v-31.13643c0-1.06704.8646888-1.93172 1.9317313-1.93172h31.1366732c1.0667709 0 1.9315955.86468 1.9315955 1.93172v31.13643c0 1.0669-.8649604 1.93185-1.9315955 1.93185h-8.9189111v-13.55393h4.5494283l.6812123-5.28221h-5.2306406v-3.37235c0-1.52932.4246713-2.5715 2.617697-2.5715l2.7970991-.00123v-4.72444c-.4837477-.06438-2.1441348-.2082-4.0758662-.2082-4.032815 0-6.7937893 2.46164-6.7937893 6.98224v3.89548h-4.5611077v5.28221h4.5611077z" fill="#fff" fill-rule="evenodd" transform="translate(-20 -1969)"/></svg>