<svg height="35" viewBox="0 0 35 35" width="35" xmlns="http://www.w3.org/2000/svg"><path d="m187.499965 1972.15322c4.672724 0 5.226163.01778 7.071467.10197 1.706233.07788 2.632845.36297 3.249567.60255.816785.31747 1.399817.69675 2.012163 1.3091.612346.61234.991632 1.19538 1.309024 2.01216.239659.61672.524749 1.54334.60262 3.2495.084194 1.84537.101977 2.39881.101977 7.07153 0 4.67273-.017783 5.22617-.101977 7.07147-.077871 1.70623-.362961 2.63285-.60262 3.24957-.317392.81678-.696678 1.39982-1.309024 2.01216-.612346.61235-1.195378.99163-2.012163 1.30903-.616722.23965-1.543334.52474-3.249567.60262-1.845026.08419-2.398465.10197-7.071467.10197s-5.22644-.01778-7.071467-.10197c-1.706232-.07788-2.632844-.36297-3.249497-.60262-.816855-.3174-1.399886-.69668-2.012232-1.30903-.612346-.61234-.991632-1.19538-1.309024-2.01216-.239659-.61672-.524749-1.54334-.602621-3.2495-.084193-1.84537-.101976-2.39881-.101976-7.07154 0-4.67272.017783-5.22616.101976-7.07146.077872-1.70623.362962-2.63285.602621-3.24957.317392-.81678.696678-1.39982 1.309024-2.01216.612346-.61235 1.195377-.99163 2.012232-1.3091.616653-.23958 1.543265-.52467 3.249428-.60255 1.845374-.08419 2.398812-.10197 7.071536-.10197m0-3.15322c-4.752749 0-5.348632.02015-7.215193.10531-1.86274.08503-3.134808.38082-4.248006.81345-1.15078.44723-2.126713 1.04561-3.099589 2.01849-.972877.97287-1.57126 1.94881-2.018484 3.09959-.432637 1.11319-.728425 2.38526-.813451 4.248-.085166 1.86649-.105242 2.46245-.105242 7.21519 0 4.75275.020076 5.34871.105242 7.2152.085026 1.86274.380814 3.13481.813451 4.248.447224 1.15071 1.045607 2.12672 2.018484 3.09959.972876.97288 1.948809 1.57126 3.099589 2.01849 1.113198.43263 2.385266.72842 4.248006.81345 1.866561.08516 2.462444.10524 7.215193.10524 4.75275 0 5.348702-.02008 7.215193-.10524 1.862741-.08503 3.134809-.38082 4.248007-.81345 1.15078-.44723 2.126713-1.04561 3.099589-2.01849.972876-.97287 1.57126-1.94881 2.018484-3.09959.432636-1.11319.728424-2.38526.813451-4.248.085166-1.86649.105311-2.46245.105311-7.2152 0-4.75274-.020145-5.3487-.105311-7.21519-.085027-1.86274-.380815-3.13481-.813451-4.248-.447224-1.15078-1.045608-2.12672-2.018484-3.09959-.972876-.97288-1.948809-1.57126-3.099589-2.01849-1.113198-.43263-2.385266-.72842-4.248007-.81345-1.866491-.08516-2.462443-.10531-7.215193-.10531zm0 8.51352c-4.963093 0-8.986515 4.02342-8.986515 8.98651 0 4.9631 4.023422 8.98652 8.986515 8.98652 4.963094 0 8.986516-4.02342 8.986516-8.98652 0-4.96309-4.023422-8.98651-8.986516-8.98651zm0 14.81988c-3.221641 0-5.833368-2.61172-5.833368-5.83337 0-3.22164 2.611727-5.83336 5.833368-5.83336 3.221642 0 5.833368 2.61172 5.833368 5.83336 0 3.22165-2.611726 5.83337-5.833368 5.83337zm11.441527-15.17492c0 1.15981-.940158 2.10003-2.099969 2.10003-1.15981 0-2.100037-.94022-2.100037-2.10003s.940227-2.09997 2.100037-2.09997c1.159811 0 2.099969.94016 2.099969 2.09997z" fill="#fff" transform="translate(-170 -1969)"/></svg>