<svg height="32" viewBox="0 0 35 32" width="35" xmlns="http://www.w3.org/2000/svg"><path d="m280 2004h-7.735477v-11.24928c0-2.94448-1.210019-4.9546-3.870826-4.9546-2.035219 0-3.167039 1.35647-3.69385 2.66376-.197554.46924-.166686 1.12288-.166686 1.77653v11.76359h-7.663453s.098777-19.927 0-21.73836h7.663453v3.41166c.452728-1.4917 2.901576-3.62067 6.809442-3.62067 4.848307 0 8.657397 3.12685 8.657397 9.86003zm-30.880174-24.45745h-.049389c-2.469426 0-4.070437-1.66178-4.070437-3.7682 0-2.14741 1.648342-3.77435 4.167157-3.77435 2.516756 0 4.064264 1.62285 4.113652 3.7682 0 2.10642-1.596896 3.77435-4.160983 3.77435zm-3.237006 2.71909h6.82179v21.73836h-6.82179z" fill="#fff" fill-rule="evenodd" transform="translate(-245 -1972)"/></svg>