<svg height="25" viewBox="0 0 35 25" width="35" xmlns="http://www.w3.org/2000/svg"><path d="m333.88625 1996.11023-.001094-9.98689 9.456563 5.01066zm20.76375-11.71746s-.342344-2.44924-1.39125-3.52779c-1.331094-1.41623-2.822969-1.4229-3.506563-1.50509-4.897812-.35989-12.244531-.35989-12.244531-.35989h-.015312s-7.346719 0-12.244531.35989c-.684688.08219-2.175469.08886-3.507657 1.50509-1.048906 1.07855-1.390156 3.52779-1.390156 3.52779s-.35 2.87688-.35 5.75265v2.69694c0 2.87688.35 5.75265.35 5.75265s.34125 2.44924 1.390156 3.5278c1.332188 1.41622 3.081094 1.37179 3.859844 1.51952 2.8.27325 11.9.35767 11.9.35767s7.354375-.01111 12.252187-.371c.683594-.0833 2.175469-.08997 3.506563-1.50619 1.048906-1.07856 1.39125-3.5278 1.39125-3.5278s.35-2.87577.35-5.75265v-2.69694c0-2.87577-.35-5.75265-.35-5.75265z" fill="#fff" fill-rule="evenodd" transform="translate(-320 -1979)"/></svg>